<?xml version="1.0" encoding="utf-8"?>
<svg xmlns="http://www.w3.org/2000/svg"
	xmlns:xlink="http://www.w3.org/1999/xlink"
	width="47px" height="46px" viewBox="0 0 47 46">
<path fillRule="evenodd" d="M 26.3 0.03C 26.3 0.03 19.72 0.03 19.72 0.03 19.72 0.03 19.72 19.74 19.72 19.74 19.72 19.74-0.02 19.74-0.02 19.74-0.02 19.74-0.02 26.31-0.02 26.31-0.02 26.31 19.72 26.31 19.72 26.31 19.72 26.31 19.72 46.03 19.72 46.03 19.72 46.03 26.3 46.03 26.3 46.03 26.3 46.03 26.3 26.31 26.3 26.31 26.3 26.31 46.04 26.31 46.04 26.31 46.04 26.31 46.04 19.74 46.04 19.74 46.04 19.74 26.3 19.74 26.3 19.74 26.3 19.74 26.3 0.03 26.3 0.03" fill="rgb(0,0,0)" opacity="0.54"/></svg>